<svg width="486.7" height="136.6" xmlns="http://www.w3.org/2000/svg"><path d="M155 512a357 357 0 1 0 714 0 357 357 0 0 0-714 0m1133 0L851 896a512 512 0 1 1 0-768l437 384" style="fill:#e4173d;fill-opacity:1;fill-rule:nonzero;stroke:none" transform="matrix(.13333 0 0 -.13333 0 137)"/><path d="M1685 420v107c-145-23-193-58-193-106 0-37 24-56 64-56 50 0 94 21 129 55m-255-8c0 77 66 132 255 159v17c0 48-25 71-72 71-58 0-101-25-138-58l-38 34c47 44 107 76 182 76 92 0 128-48 128-127V415c0-46 3-74 10-94h-63c-5 16-9 32-9 53-42-40-90-58-147-58-66 0-108 34-108 96m401 100c0 140 90 199 175 199 86 0 127-51 150-107l-53-22c-19 49-49 76-98 76-55 0-111-38-111-146 0-94 45-146 109-146 49 0 78 21 103 76l51-20c-30-64-74-108-156-108-88 0-170 67-170 198m381 0c0 140 90 199 175 199 86 0 126-51 149-107l-52-22c-19 49-49 76-99 76-55 0-110-38-110-146 0-94 45-146 109-146 48 0 78 21 103 76l51-20c-30-64-74-108-156-108-88 0-170 67-170 198m653 33c-5 68-37 114-100 114-52 0-100-35-109-114zm-272-33c0 139 92 199 172 199 91 0 159-64 159-202v-13h-269c2-86 52-132 115-132 55 0 86 22 115 62l36-32c-36-50-84-81-156-81-90 1-172 66-172 199m386-133 37 38c29-31 67-53 119-53 60 0 92 21 92 60 0 38-33 53-98 68-81 19-137 41-137 115 0 58 51 104 134 104 67 0 111-22 146-55l-32-41c-29 27-68 45-111 45-56 0-77-24-77-51 0-35 30-48 90-62 86-21 145-42 145-121 0-73-66-112-152-112-69 0-125 28-156 65m362 0 38 38c29-31 67-53 119-53 59 0 92 21 92 60 0 38-33 53-98 68-81 19-137 41-137 115 0 58 51 104 134 104 67 0 110-22 146-55l-33-41c-29 27-68 45-110 45-56 0-78-24-78-51 0-35 31-48 91-62 86-21 145-42 145-121 0-73-66-112-152-112-69 0-126 28-157 65" style="fill:#505256;fill-opacity:1;fill-rule:nonzero;stroke:none" transform="matrix(.13333 0 0 -.13333 0 137)"/></svg>