<?xml version="1.0" encoding="UTF-8" standalone="no"?>
<!-- Created with Inkscape (http://www.inkscape.org/) -->

<svg
   version="1.1"
   id="svg1"
   width="486.66666"
   height="136.57333"
   viewBox="0 0 486.66666 136.57333"
   sodipodi:docname="the-access-group-seeklogo.svg"
   inkscape:version="1.3.2 (091e20e, 2023-11-25, custom)"
   xmlns:inkscape="http://www.inkscape.org/namespaces/inkscape"
   xmlns:sodipodi="http://sodipodi.sourceforge.net/DTD/sodipodi-0.dtd"
   xmlns="http://www.w3.org/2000/svg"
   xmlns:svg="http://www.w3.org/2000/svg">
  <defs
     id="defs1" />
  <sodipodi:namedview
     id="namedview1"
     pagecolor="#505050"
     bordercolor="#eeeeee"
     borderopacity="1"
     inkscape:showpageshadow="0"
     inkscape:pageopacity="0"
     inkscape:pagecheckerboard="0"
     inkscape:deskcolor="#505050"
     inkscape:zoom="6.7273974"
     inkscape:cx="243.33333"
     inkscape:cy="68.302788"
     inkscape:window-width="3840"
     inkscape:window-height="2071"
     inkscape:window-x="-9"
     inkscape:window-y="-9"
     inkscape:window-maximized="1"
     inkscape:current-layer="g1">
    <inkscape:page
       x="0"
       y="0"
       inkscape:label="1"
       id="page1"
       width="486.66666"
       height="136.57333"
       margin="0"
       bleed="0" />
  </sodipodi:namedview>
  <g
     id="g1"
     inkscape:groupmode="layer"
     inkscape:label="1">
    <g
       id="group-R5">
      <path
         id="path2"
         d="m 155.441,512.078 c 0,196.996 159.735,356.699 356.688,356.699 196.957,0 356.648,-159.711 356.648,-356.699 0,-196.933 -159.691,-356.644 -356.648,-356.644 -196.953,0 -356.688,159.722 -356.688,356.644 m 1132.859,0 -437.386,384.09 h -0.039 C 760.613,975.875 641.996,1024.26 512.129,1024.26 229.289,1024.26 0,794.961 0,512.078 0,229.281 229.289,0 512.129,0 641.996,0 760.605,48.2852 850.863,128.074 h 0.039 L 1288.3,512.078"
         style="fill:#e4173d;fill-opacity:1;fill-rule:nonzero;stroke:none"
         transform="matrix(0.13333333,0,0,-0.13333333,0,136.57333)" />
      <path
         id="path3"
         d="m 1685.19,420.469 v 106.89 c -145.22,-23.136 -193.62,-58.554 -193.62,-106.164 0,-36.902 24.55,-56.414 64.28,-56.414 50.59,0 93.98,21.016 129.34,55.688 m -255.08,-8.758 c 0,77.394 65.77,132.273 255.08,158.996 v 17.383 c 0,47.719 -25.29,70.765 -72.26,70.765 -57.79,0 -100.46,-25.257 -138,-57.769 l -37.61,33.793 c 46.66,44.226 106.27,76.027 182.16,76.027 91.05,0 127.16,-47.668 127.16,-127.148 V 415.34 c 0,-46.219 2.92,-74.363 10.85,-93.863 h -63.6 c -5.05,15.882 -8.68,31.054 -8.68,52.707 -42.61,-39.762 -90.33,-58.579 -147.4,-58.579 -65.74,0 -107.7,34.723 -107.7,96.106"
         style="fill:#505256;fill-opacity:1;fill-rule:nonzero;stroke:none"
         transform="matrix(0.13333333,0,0,-0.13333333,0,136.57333)" />
      <path
         id="path4"
         d="m 1831.21,512.211 c 0,139.496 89.55,198.707 174.83,198.707 85.99,0 126.5,-50.559 149.59,-106.953 l -52.71,-21.613 c -18.84,49.062 -48.45,75.796 -98.31,75.796 -54.89,0 -110.59,-38.296 -110.59,-145.937 0,-93.953 44.84,-146.684 109.1,-146.684 48.44,0 78.08,20.989 102.69,76.586 l 51.28,-20.23 C 2127.43,358.285 2083.35,313.516 2001,313.516 c -88.14,-0.008 -169.79,67.886 -169.79,198.695"
         style="fill:#505256;fill-opacity:1;fill-rule:nonzero;stroke:none"
         transform="matrix(0.13333333,0,0,-0.13333333,0,136.57333)" />
      <path
         id="path5"
         d="m 2211.96,512.211 c 0,139.496 89.62,198.707 174.9,198.707 86,0 126.5,-50.559 149.62,-106.953 l -52.77,-21.613 c -18.8,49.062 -48.42,75.796 -98.29,75.796 -54.93,0 -110.55,-38.296 -110.55,-145.937 0,-93.953 44.79,-146.684 109.07,-146.684 48.44,0 78.05,20.989 102.6,76.586 l 51.35,-20.23 c -29.65,-63.598 -73.71,-108.367 -156.09,-108.367 -88.14,-0.008 -169.84,67.886 -169.84,198.695"
         style="fill:#505256;fill-opacity:1;fill-rule:nonzero;stroke:none"
         transform="matrix(0.13333333,0,0,-0.13333333,0,136.57333)" />
      <path
         id="path6"
         d="m 2865.21,544.754 c -5.05,67.957 -37.63,114.121 -100.45,114.121 -51.28,0 -99.73,-35.336 -108.41,-114.121 z m -272.4,-32.543 c 0,138.738 92.44,198.707 172.66,198.707 90.36,0 158.96,-63.574 158.96,-201.637 v -12.984 h -269.48 c 2.15,-85.988 52.05,-132.234 114.88,-132.234 54.94,0 86,22.429 114.94,62.113 l 36.1,-31.754 c -35.39,-50.559 -83.84,-80.926 -155.4,-80.926 -90.31,0.012 -172.66,65.758 -172.66,198.715"
         style="fill:#505256;fill-opacity:1;fill-rule:nonzero;stroke:none"
         transform="matrix(0.13333333,0,0,-0.13333333,0,136.57333)" />
      <path
         id="path7"
         d="m 2978.65,379.254 37.58,37.578 c 28.9,-31.035 67.2,-52.758 119.22,-52.758 59.33,0 91.84,20.989 91.84,59.989 0,38.296 -33.3,52.718 -98.33,67.953 -80.9,19.461 -136.56,41.121 -136.56,114.859 0,57.809 50.56,104.043 133.67,104.043 67.21,0 110.61,-21.715 145.96,-54.898 l -32.49,-41.188 c -28.91,26.703 -67.92,45.527 -110.58,45.527 -55.62,0 -77.3,-24.539 -77.3,-51.285 0,-35.476 30.34,-48.433 90.3,-62.172 85.99,-20.964 145.27,-41.941 145.27,-120.718 0,-72.946 -65.77,-111.95 -152.48,-111.95 -68.63,0.008 -125.07,27.45 -156.1,65.02"
         style="fill:#505256;fill-opacity:1;fill-rule:nonzero;stroke:none"
         transform="matrix(0.13333333,0,0,-0.13333333,0,136.57333)" />
      <path
         id="path8"
         d="m 3341.4,379.254 37.56,37.578 c 28.96,-31.035 67.2,-52.758 119.29,-52.758 59.23,0 91.76,20.989 91.76,59.989 0,38.296 -33.25,52.718 -98.26,67.953 -80.98,19.461 -136.64,41.121 -136.64,114.859 0,57.809 50.59,104.043 133.73,104.043 67.17,0 110.56,-21.715 145.99,-54.898 l -32.6,-41.188 c -28.85,26.703 -67.88,45.527 -110.48,45.527 -55.67,0 -77.36,-24.539 -77.36,-51.285 0,-35.476 30.34,-48.433 90.33,-62.172 86.04,-20.964 145.28,-41.941 145.28,-120.718 0,-72.946 -65.79,-111.95 -152.49,-111.95 -68.67,0.008 -125.04,27.45 -156.11,65.02"
         style="fill:#505256;fill-opacity:1;fill-rule:nonzero;stroke:none"
         transform="matrix(0.13333333,0,0,-0.13333333,0,136.57333)" />
    </g>
  </g>
</svg>
