<svg xmlns="http://www.w3.org/2000/svg" id="svg2" version="1.1" viewBox="0 0 596.7 312.3">
  <g id="layer1" transform="translate(-124 -174)">
    <g id="g2993" transform="matrix(2.8 0 0 2.8 -223 -312)">
      <rect id="rect2985" width="213.1" height="70.7" x="123.9" y="173.5" fill="red" rx="12.1" ry="10.1"/>
      <path id="background-4" fill="#fff" stroke-dasharray="none" stroke-width="1" d="M174 209a16 16 0 1 1-32 0 16 16 0 0 1 32 0z" display="inline" style="mix-blend-mode:normal"/>
      <path id="path2987-7" fill="red" stroke-width=".6" d="M168 209a10 10 0 1 1-20 0 10 10 0 0 1 20 0z"/>
      <path id="background-3" fill="#fff" stroke="#fff" stroke-linecap="round" stroke-linejoin="round" stroke-width="5" d="M234 188h88"/>
      <path id="background-2" fill="#fff" stroke="#fff" stroke-linecap="round" stroke-linejoin="round" stroke-width="5" d="M234 207h88"/>
      <path id="background-1" fill="#fff" fill-opacity="1" stroke="#fff" stroke-linecap="round" stroke-linejoin="round" stroke-opacity="1" stroke-width="5" d="M234 226h88"/>
      <path id="path3011-6-5" fill="red" stroke="red" stroke-linecap="round" stroke-linejoin="round" stroke-width="15" d="M131 278h198"/>
      <path id="path3011-6-5-4" fill="red" stroke="red" stroke-linecap="round" stroke-linejoin="round" stroke-width="6.3" d="M230 280v-35"/>
    </g>
  </g>
</svg>
