<!-- Animated using SVGANIMA - https://svganima.com -->
<svg xmlns="http://www.w3.org/2000/svg" id="svg1" width="1024" height="1024" version="1.1" viewBox="0 0 270.9 270.9" preserveAspectRatio="xMidYMid">
  <defs id="defs1">
    <path id="rect2" d=" M 358.4 403.4 h 255.2 v 33.1 H 358.4 z "></path>
    <path id="rect1" d=" M 160 357.1 h 653.3 v 353.1 H 160 z "></path>
  </defs>
  <g id="layer1" stroke-width=".3" font-size="38.1" transform="matrix(1 0 0 1 -0.30000001192092896 20.399999618530273)">
    <path id="number5Text" d=" M 151.3 130.1 q 0 2 -0.7 3.7 -0.7 1.8 -1.9 3 -1.3 1.3 -3.2 2 -1.8 0.7 -4.3 0.7 -2.2 0 -4.3 -0.5 -2.2 -0.5 -3.6 -1.1 v -4 h 0.3 q 1.5 1 3.5 1.7 t 4 0.7 q 1.4 0 2.6 -0.4 1.2 -0.4 2.2 -1.3 0.8 -0.8 1.2 -2 0.5 -1 0.5 -2.5 0 -1.4 -0.5 -2.4 t -1.4 -1.6 q -1 -0.7 -2.4 -1 -1.3 -0.3 -3 -0.3 t -3.2 0.2 l -2.6 0.5 v -14.3 h 16.7 v 3.3 H 138 v 7.3 h 1.6 l 1.5 -0.1 q 2.2 0 4 0.4 1.6 0.4 3 1.3 1.5 1 2.3 2.7 0.8 1.6 0.8 4 z " aria-label="5"><animate attributeType="auto" attributeName="opacity" values="1;1;1;0;0;1;1" calcMode="spline" keyTimes="0; 0.14285714285714285; 0.35714285714285715; 0.42857142857142855; 0.7857142857142857; 0.8571428571428571; 1" keySplines="0 0 1 1;0 0 1 1;0 0 1 1;0 0 1 1;0 0 1 1;0 0 1 1" dur="14s" begin="0s" repeatCount="indefinite" additive="replace" accumulate="none" fill="freeze" id="animate8136"></animate></path>
    <path id="yearsText" d=" m 180.8 111.2 -9.8 15.6 v 12.1 h -3.6 v -11.7 l -9.8 -16 h 4 l 7.6 12.4 7.7 -12.4 z m 18.5 17.7 H 184 q 0 1.9 0.6 3.3 0.6 1.5 1.6 2.4 1 0.9 2.3 1.3 1.3 0.4 2.9 0.4 2.1 0 4.3 -0.8 2.1 -0.8 3 -1.7 h 0.2 v 3.9 l -3.6 1.2 q -1.8 0.5 -3.9 0.5 -5.1 0 -8 -2.8 -3 -2.8 -3 -8 0 -5 2.8 -8 t 7.4 -3 q 4.2 0 6.4 2.4 2.3 2.5 2.3 7 z m -3.4 -2.7 q 0 -2.7 -1.4 -4.3 -1.3 -1.5 -4.1 -1.5 t -4.5 1.7 q -1.7 1.7 -1.9 4.1 z m 24.9 12.7 h -3.5 v -2.2 l -1.3 0.9 q -0.8 0.6 -1.5 0.9 l -2 0.7 q -1.1 0.3 -2.7 0.3 -2.8 0 -4.7 -1.9 -2 -1.8 -2 -4.7 0 -2.4 1 -3.8 1 -1.5 3 -2.3 1.8 -0.9 4.5 -1.2 2.6 -0.3 5.7 -0.4 v -0.6 q 0 -1.1 -0.4 -2 -0.4 -0.7 -1.2 -1.2 -0.8 -0.4 -1.8 -0.5 -1 -0.2 -2.2 -0.2 -1.4 0 -3 0.4 -1.8 0.3 -3.6 1 h -0.1 v -3.5 l 3 -0.6 q 1.8 -0.4 3.7 -0.4 2.2 0 3.8 0.4 1.7 0.4 2.9 1.2 1.1 0.9 1.8 2.2 0.6 1.4 0.6 3.4 z m -3.5 -5.1 V 128 l -3.8 0.3 q -2.1 0.2 -3.4 0.5 -1.5 0.5 -2.4 1.4 -1 0.9 -1 2.4 0 1.8 1.1 2.7 1 1 3.3 1 1.8 0 3.4 -0.8 1.5 -0.7 2.8 -1.7 z m 23.2 -11.9 h -0.2 l -1.5 -0.2 -1.8 -0.1 q -1.6 0 -3.1 0.7 t -2.9 1.9 v 14.7 h -3.5 v -20.8 h 3.5 v 3.1 q 2 -1.7 3.7 -2.4 1.6 -0.7 3.2 -0.7 h 1.3 l 1.3 0.3 z m 18.1 11 q 0 2.9 -2.4 4.7 -2.3 1.8 -6.4 1.8 -2.3 0 -4.2 -0.5 -2 -0.6 -3.2 -1.2 v -4 h 0.2 q 1.6 1.3 3.6 2 2 0.8 4 0.8 2.2 0 3.5 -0.8 1.3 -0.7 1.3 -2.3 0 -1.3 -0.7 -1.9 -0.7 -0.6 -2.7 -1 l -2 -0.5 -2.1 -0.4 q -2.8 -0.8 -3.9 -2.2 -1.1 -1.4 -1.1 -3.4 0 -1.3 0.5 -2.4 0.5 -1.2 1.6 -2 1 -1 2.6 -1.4 1.7 -0.6 3.7 -0.6 1.8 0 3.7 0.5 2 0.4 3.2 1.1 v 3.7 h -0.2 q -1.3 -1 -3.3 -1.6 -1.9 -0.7 -3.7 -0.7 -2 0 -3.2 0.7 -1.4 0.8 -1.4 2.2 0 1.3 0.8 2 0.8 0.6 2.6 1 l 2.1 0.5 2 0.4 q 2.5 0.5 3.8 1.9 1.3 1.4 1.3 3.6 z " aria-label="Years"></path>
    <path id="number4Text" d=" M 153.2 130.8 h -4 v 7.8 h -3.6 v -7.8 h -13.3 v -4.3 l 13.4 -15.6 h 3.4 v 16.9 h 4.1 z m -7.6 -3 v -12.5 l -10.8 12.5 z " aria-label="4"><animate attributeType="auto" attributeName="opacity" values="0;0;0;1;1;0;0" calcMode="spline" keyTimes="0;0.14285714285714285;0.35714285714285715;0.42857142857142855;0.7857142857142857;0.8571428571428571;1" keySplines="0 0 1 1;0 0 1 1;0 0 1 1;0 0 1 1;0 0 1 1;0 0 1 1" dur="14s" begin="0s" repeatCount="indefinite" additive="replace" accumulate="none" fill="freeze" id="animate1627"></animate></path>
  </g>
  <g id="layer2" stroke-width=".3">
    <path id="htmlText" d="M 40.3 140.3 L 36.599999999999994 140.3 L 36.599999999999994 126.80000000000001 L 22.8 126.80000000000001 L 22.8 140.3 L 19.1 140.3 L 19.1 112.60000000000001 L 22.8 112.60000000000001 L 22.8 123.50000000000001 L 36.6 123.50000000000001 L 36.6 112.60000000000001 L 40.300000000000004 112.60000000000001 Z M 67.5 116 L 57.6 116 L 57.6 140.4 L 54 140.4 L 54 116 L 44 116 L 44 112.7 L 67.5 112.7 Z M 95.9 140.4 L 92.2 140.4 L 92.2 116.5 L 84.5 132.8 L 82.3 132.8 L 74.7 116.50000000000001 L 74.7 140.5 L 71.2 140.5 L 71.2 112.7 L 76.2 112.7 L 83.60000000000001 128.1 L 90.80000000000001 112.69999999999999 L 95.80000000000001 112.69999999999999 Z M 120.9 140.4 L 103.30000000000001 140.4 L 103.30000000000001 112.7 L 107.00000000000001 112.7 L 107.00000000000001 137 L 121.00000000000001 137 Z" aria-label="HTML" font-size="38.1" transform="translate(-.3 18.9)"><animate attributeType="auto" attributeName="opacity" values="1;1;0.5;0.5;0.05;0.5;0.5;1" calcMode="spline" keyTimes="0; 0.07142857142857141; 0.14285714285714282; 0.5; 0.5357142857142857; 0.5714285714285714; 0.9285714285714286; 1" keySplines="0 0 1 1;0 0 1 1;0 0 1 1;0 0 1 1;0 0 1 1;0 0 1 1;0 0 1 1" dur="14s" begin="0s" repeatCount="indefinite" additive="replace" accumulate="none" fill="freeze" id="animate1592"></animate><animateTransform attributeName="transform" attributeType="auto" type="translate" values="0 0;0 0;0 38;0 38;0 74;0 74;0 104;0 104;0 -120;0 -120;0 -83;0 -83;0 -40;0 -40;0 0" calcMode="spline" keyTimes="0; 0.07142857142857142; 0.14285714285714285; 0.21428571428571427; 0.2857142857142857; 0.35714285714285715; 0.42857142857142855; 0.5; 0.5714285714285714; 0.6428571428571429; 0.7142857142857143; 0.7857142857142857; 0.8571428571428571; 0.9285714285714286; 1" keySplines="0 0 1 1;0 0 1 1;0 0 1 1;0 0 1 1;0 0 1 1;0 0 1 1;0 0 1 1;0 0 1 1;0 0 1 1;0 0 1 1;0 0 1 1;0 0 1 1;0 0 1 1;0 0 1 1" dur="14s" begin="0s" repeatCount="indefinite" additive="sum" accumulate="none" fill="freeze" id="animateTransform940"></animateTransform></path>
    <path id="netText" d="M 31.5 78.4 L 27.1 78.4 L 27.1 73 L 31.5 73 Z M 61.1 78.4 L 56.6 78.4 L 43.4 53.6 L 43.4 78.4 L 40 78.4 L 40 50.7 L 45.7 50.7 L 57.7 73.30000000000001 L 57.7 50.7 L 61 50.7 Z M 86.7 78.4 L 68.5 78.4 L 68.5 50.7 L 86.7 50.7 L 86.7 54 L 72.2 54 L 72.2 61.5 L 86.7 61.5 L 86.7 64.8 L 72.2 64.8 L 72.2 75.1 L 86.7 75.1 Z M 112.3 54 L 102.39999999999999 54 L 102.39999999999999 78.4 L 98.69999999999999 78.4 L 98.69999999999999 54 L 88.79999999999998 54 L 88.79999999999998 50.7 L 112.29999999999998 50.7 Z" aria-label=".NET" font-size="38.1"><animate attributeType="auto" attributeName="opacity" values="0.5;0.5;0.5;0.5;1;1;0.5;0.5;0.05;0.5;0.5" calcMode="spline" keyTimes="0; 0.07142857142857142; 0.14285714285714285; 0.21428571428571427; 0.2857142857142857; 0.35714285714285715; 0.42857142857142855; 0.7857142857142857; 0.8214285714285715; 0.8571428571428571; 1" keySplines="0 0 1 1;0 0 1 1;0 0 1 1;0 0 1 1;0 0 1 1;0 0 1 1;0 0 1 1;0 0 1 1;0 0 1 1;0 0 1 1" dur="14s" begin="0s" repeatCount="indefinite" additive="replace" accumulate="none" fill="freeze" id="animate1717"></animate><animateTransform attributeName="transform" attributeType="auto" type="translate" values="0 0;0 0;0 41.14;0 41.14;0 81;0 81;0 118;0 118;0 154;0 154;0 186;0 186;0 -40;0 -40;0 0" calcMode="spline" keyTimes="0; 0.07142857142857142; 0.14285714285714285; 0.21428571428571427; 0.2857142857142857; 0.35714285714285715; 0.42857142857142855; 0.5; 0.5714285714285714; 0.6428571428571429; 0.7142857142857143; 0.7857142857142857; 0.8571428571428571; 0.9285714285714286; 1" keySplines="0 0 1 1;0 0 1 1;0 0 1 1;0 0 1 1;0 0 1 1;0 0 1 1;0 0 1 1;0 0 1 1;0 0 1 1;0 0 1 1;0 0 1 1;0 0 1 1;0 0 1 1;0 0 1 1" dur="14s" begin="0s" repeatCount="indefinite" additive="sum" accumulate="none" fill="freeze" id="animateTransform7110"></animateTransform></path>
    <path id="cSharpText" d="M 67.8 117 L 65.89999999999999 117.8 L 63.79999999999999 118.6 Q 62.69999999999999 119 61.29999999999999 119.19999999999999 Q 59.99999999999999 119.49999999999999 58.29999999999999 119.49999999999999 Q 55.29999999999999 119.49999999999999 52.89999999999999 118.59999999999998 Q 50.39999999999999 117.79999999999998 48.599999999999994 115.99999999999999 Q 46.8 114.19999999999999 45.8 111.49999999999999 Q 44.8 108.79999999999998 44.8 105.09999999999998 Q 44.8 101.69999999999997 45.8 99.09999999999998 Q 46.8 96.29999999999998 48.599999999999994 94.49999999999999 Q 50.39999999999999 92.69999999999999 52.8 91.69999999999999 Q 55.4 90.69999999999999 58.4 90.69999999999999 Q 60.6 90.69999999999999 62.9 91.29999999999998 Q 65.1 91.79999999999998 67.8 93.19999999999999 L 67.8 97.6 L 67.5 97.6 Q 65.2 95.6 63 94.8 Q 60.7 93.89999999999999 58.2 93.89999999999999 Q 56.1 93.89999999999999 54.400000000000006 94.6 Q 52.7 95.3 51.400000000000006 96.69999999999999 Q 50.10000000000001 98.1 49.400000000000006 100.19999999999999 Q 48.7 102.39999999999999 48.7 105.19999999999999 Q 48.7 108.1 49.400000000000006 110.19999999999999 Q 50.2 112.19999999999999 51.400000000000006 113.6 Q 52.800000000000004 115 54.50000000000001 115.6 Q 56.300000000000004 116.3 58.20000000000001 116.3 Q 60.90000000000001 116.3 63.20000000000001 115.3 Q 65.50000000000001 114.5 67.50000000000001 112.6 L 67.80000000000001 112.6 Z M 96.8 101.6 L 90.6 101.6 L 88.89999999999999 108.6 L 94.69999999999999 108.6 L 94.69999999999999 111.1 L 88.29999999999998 111.1 L 86.29999999999998 119 L 84 119 L 85.9 111.1 L 80.9 111.1 L 78.9 119 L 76.5 119 L 78.5 111.1 L 72.9 111.1 L 72.9 108.6 L 79.10000000000001 108.6 L 80.80000000000001 101.6 L 75.10000000000001 101.6 L 75.10000000000001 99.1 L 81.50000000000001 99.1 L 83.50000000000001 91.3 L 85.80000000000001 91.3 L 83.80000000000001 99.1 L 89 99.1 L 91 91.3 L 93.4 91.3 L 91.4 99.1 L 96.9 99.1 Z M 88.3 101.6 L 83.3 101.6 L 81.5 108.6 L 86.5 108.6 Z" aria-label="C#" font-size="38.1"><animate attributeType="auto" attributeName="opacity" values="0.5;0.5;1;1;0.5;0.5;0.05;0.5;0.5" calcMode="spline" keyTimes="0; 0.07142857142857142; 0.14285714285714285; 0.21428571428571427; 0.2857142857142857; 0.6428571428571429; 0.6785714285714286; 0.7142857142857143; 1" keySplines="0 0 1 1;0 0 1 1;0 0 1 1;0 0 1 1;0 0 1 1;0 0 1 1;0 0 1 1;0 0 1 1" dur="14s" begin="0s" repeatCount="indefinite" additive="replace" accumulate="none" fill="freeze" id="animate8635"></animate><animateTransform attributeName="transform" attributeType="auto" type="translate" values="0 0;0 0;0 40;0 40;0 77;0 77;0 113;0 113;0 146;0 146;0 -80;0 -80;0 -40;0 -40;0 0" calcMode="spline" keyTimes="0; 0.07142857142857142; 0.14285714285714285; 0.21428571428571427; 0.2857142857142857; 0.35714285714285715; 0.42857142857142855; 0.5; 0.5714285714285714; 0.6428571428571429; 0.7142857142857143; 0.7857142857142857; 0.8571428571428571; 0.9285714285714286; 1" keySplines="0 0 1 1;0 0 1 1;0 0 1 1;0 0 1 1;0 0 1 1;0 0 1 1;0 0 1 1;0 0 1 1;0 0 1 1;0 0 1 1;0 0 1 1;0 0 1 1;0 0 1 1;0 0 1 1" dur="14s" begin="0s" repeatCount="indefinite" additive="sum" accumulate="none" fill="freeze" id="animateTransform3569"></animateTransform></path>
    <path id="jsText" d="M 61.8 171 Q 61.8 174.6 59.599999999999994 176.5 Q 57.39999999999999 178.5 53.599999999999994 178.5 L 51.199999999999996 178.3 L 48.8 178 L 48.8 174.5 L 49 174.5 L 50.8 175.1 L 53.099999999999994 175.29999999999998 Q 54.8 175.29999999999998 55.8 174.89999999999998 Q 56.8 174.59999999999997 57.4 173.89999999999998 Q 57.9 173.09999999999997 58 171.99999999999997 L 58.1 169.49999999999997 L 58.1 153.29999999999998 L 52.300000000000004 153.29999999999998 L 52.300000000000004 150.39999999999998 L 61.800000000000004 150.39999999999998 Z M 89.1 170.2 Q 89.1 171.79999999999998 88.3 173.39999999999998 Q 87.6 174.99999999999997 86.3 176.09999999999997 Q 84.8 177.29999999999995 82.8 177.89999999999998 Q 80.8 178.59999999999997 78 178.59999999999997 Q 75 178.59999999999997 72.6 178.09999999999997 Q 70.19999999999999 177.49999999999997 67.8 176.39999999999998 L 67.8 171.79999999999998 L 68 171.79999999999998 Q 70.1 173.49999999999997 72.9 174.49999999999997 Q 75.60000000000001 175.49999999999997 78 175.49999999999997 Q 81.5 175.49999999999997 83.4 174.09999999999997 Q 85.30000000000001 172.89999999999998 85.30000000000001 170.69999999999996 Q 85.30000000000001 168.89999999999995 84.30000000000001 167.99999999999997 Q 83.50000000000001 167.09999999999997 81.60000000000001 166.59999999999997 L 78.60000000000001 165.99999999999997 L 75.2 165.39999999999998 Q 71.5 164.59999999999997 69.7 162.79999999999998 Q 67.9 160.79999999999998 67.9 157.79999999999998 Q 67.9 154.29999999999998 70.9 152.1 Q 73.80000000000001 149.9 78.30000000000001 149.9 Q 81.30000000000001 149.9 83.70000000000002 150.5 Q 86.10000000000002 151 88.00000000000001 151.8 L 88.00000000000001 156.20000000000002 L 87.70000000000002 156.20000000000002 Q 86.10000000000002 154.9 83.60000000000002 154.00000000000003 Q 81.00000000000003 153.00000000000003 78.30000000000003 153.00000000000003 Q 75.30000000000003 153.00000000000003 73.50000000000003 154.30000000000004 Q 71.80000000000003 155.50000000000003 71.80000000000003 157.50000000000003 Q 71.80000000000003 159.20000000000002 72.60000000000002 160.20000000000002 Q 73.60000000000002 161.20000000000002 75.80000000000003 161.70000000000002 L 79.20000000000003 162.3 L 82.90000000000003 163.10000000000002 Q 85.90000000000003 163.90000000000003 87.50000000000003 165.60000000000002 Q 89.10000000000002 167.20000000000002 89.10000000000002 170.20000000000002 Z" aria-label="JS" font-size="38.1" transform="translate(-.3 18.9)"><animate attributeType="auto" attributeName="opacity" values="0.5;0.5;0.5;0.5;0.05;0.5;0.5;1;1;0.5" calcMode="spline" keyTimes="0; 0.07142857142857142; 0.14285714285714285; 0.35714285714285715; 0.3928571428571428; 0.42857142857142855; 0.7857142857142857; 0.8571428571428571; 0.9285714285714286; 1" keySplines="0 0 1 1;0 0 1 1;0 0 1 1;0 0 1 1;0 0 1 1;0 0 1 1;0 0 1 1;0 0 1 1;0 0 1 1" dur="14s" begin="0s" repeatCount="indefinite" additive="replace" accumulate="none" fill="freeze" id="animate5707"></animate><animateTransform attributeName="transform" attributeType="auto" type="translate" values="0 0;0 0;0 36;0 36;0 68;0 68;0 -158;0 -158;0 -120;0 -120;0 -77;0 -77;0 -38;0 -38;0 0" calcMode="spline" keyTimes="0; 0.07142857142857142; 0.14285714285714285; 0.21428571428571427; 0.2857142857142857; 0.35714285714285715; 0.42857142857142855; 0.5; 0.5714285714285714; 0.6428571428571429; 0.7142857142857143; 0.7857142857142857; 0.8571428571428571; 0.9285714285714286; 1" keySplines="0 0 1 1;0 0 1 1;0 0 1 1;0 0 1 1;0 0 1 1;0 0 1 1;0 0 1 1;0 0 1 1;0 0 1 1;0 0 1 1;0 0 1 1;0 0 1 1;0 0 1 1;0 0 1 1" dur="14s" begin="0s" repeatCount="indefinite" additive="sum" accumulate="none" fill="freeze" id="animateTransform7502"></animateTransform></path>
    <path id="vbNetText" d="M 30.9 186.8 L 22.9 208.9 L 18.9 208.9 L 10.899999999999999 186.9 L 14 186.9 L 21 206.20000000000002 L 27.9 186.8 Z M 50.9 202.10000000000002 Q 50.9 203.8 50.199999999999996 205.10000000000002 Q 49.599999999999994 206.3 48.49999999999999 207.10000000000002 Q 47.29999999999999 208.10000000000002 45.79999999999999 208.50000000000003 Q 44.29999999999999 208.90000000000003 41.99999999999999 208.90000000000003 L 34.199999999999996 208.90000000000003 L 34.199999999999996 186.90000000000003 L 40.699999999999996 186.90000000000003 L 44.3 187.00000000000003 Q 45.5 187.20000000000002 46.599999999999994 187.80000000000004 Q 47.89999999999999 188.40000000000003 48.39999999999999 189.40000000000003 Q 48.99999999999999 190.40000000000003 48.99999999999999 191.80000000000004 Q 48.99999999999999 193.40000000000003 48.199999999999996 194.50000000000003 Q 47.4 195.50000000000003 45.99999999999999 196.20000000000002 L 45.99999999999999 196.4 Q 48.29999999999999 196.8 49.49999999999999 198.4 Q 50.79999999999999 199.8 50.79999999999999 202.1 Z M 45.9 192.10000000000002 Q 45.9 191.40000000000003 45.6 190.8 Q 45.4 190.3 44.800000000000004 189.9 Q 44.1 189.5 43.1 189.4 L 37.1 189.4 L 37.1 195.70000000000002 L 41 195.70000000000002 L 43.2 195.60000000000002 Q 44 195.40000000000003 44.7 195.00000000000003 Q 45.400000000000006 194.50000000000003 45.7 193.80000000000004 Q 46 193.10000000000005 46 192.20000000000005 Z M 47.8 202.20000000000002 Q 47.8 200.9 47.4 200.20000000000002 Q 47 199.3 45.9 198.8 Q 45.199999999999996 198.4 44.199999999999996 198.3 L 41.699999999999996 198.20000000000002 L 37.099999999999994 198.20000000000002 L 37.099999999999994 206.4 L 41.099999999999994 206.4 Q 42.89999999999999 206.4 44.099999999999994 206.20000000000002 Q 45.39999999999999 206.00000000000003 46.099999999999994 205.50000000000003 Q 47.099999999999994 204.90000000000003 47.39999999999999 204.10000000000002 Q 47.79999999999999 203.40000000000003 47.79999999999999 202.20000000000002 Z M 59 209 L 55.5 209 L 55.5 204.8 L 59 204.8 Z M 82.6 209 L 78.89999999999999 209 L 68.49999999999999 189.3 L 68.49999999999999 209 L 65.69999999999999 209 L 65.69999999999999 187 L 70.29999999999998 187 L 79.79999999999998 205 L 79.79999999999998 187 L 82.59999999999998 187 Z M 103 209 L 88.4 209 L 88.4 187 L 103 187 L 103 189.5 L 91.4 189.5 L 91.4 195.5 L 103 195.5 L 103 198.2 L 91.4 198.2 L 91.4 206.39999999999998 L 103 206.39999999999998 Z M 123.3 189.5 L 115.5 189.5 L 115.5 209 L 112.5 209 L 112.5 189.5 L 104.7 189.5 L 104.7 186.9 L 123.30000000000001 186.9 Z" aria-label="VB.NET" font-size="30.3" transform="translate(-.3 18.9)"><animate attributeType="auto" attributeName="opacity" values="0.5;0.5;0.5;0.5;0.05;0.5;0.5;1;1;0.5;0.5" calcMode="spline" keyTimes="0; 0.07142857142857142; 0.14285714285714285; 0.21428571428571427; 0.25; 0.2857142857142857; 0.6428571428571429; 0.7142857142857143; 0.7857142857142857; 0.8571428571428571; 1" keySplines="0 0 1 1;0 0 1 1;0 0 1 1;0 0 1 1;0 0 1 1;0 0 1 1;0 0 1 1;0 0 1 1;0 0 1 1;0 0 1 1" dur="14s" begin="0s" repeatCount="indefinite" additive="replace" accumulate="none" fill="freeze" id="animate6251"></animate><animateTransform attributeName="transform" attributeType="auto" type="translate" values="0 0;0 0;0 33;0 33;0 -191;0 -191;0 -154;0 -154;0 -110;0 -110;0 -71;0 -71;0 -31;0 -31;0 0" calcMode="spline" keyTimes="0; 0.07142857142857142; 0.14285714285714285; 0.21428571428571427; 0.2857142857142857; 0.35714285714285715; 0.42857142857142855; 0.5; 0.5714285714285714; 0.6428571428571429; 0.7142857142857143; 0.7857142857142857; 0.8571428571428571; 0.9285714285714286; 1" keySplines="0 0 1 1;0 0 1 1;0 0 1 1;0 0 1 1;0 0 1 1;0 0 1 1;0 0 1 1;0 0 1 1;0 0 1 1;0 0 1 1;0 0 1 1;0 0 1 1;0 0 1 1;0 0 1 1" dur="14s" begin="0s" repeatCount="indefinite" additive="sum" accumulate="none" fill="freeze" id="animateTransform6390"></animateTransform></path>
    <path id="saasText" d="M 46.6 8.2 Q 46.6 9.799999999999999 45.800000000000004 11.399999999999999 Q 45.1 12.999999999999998 43.800000000000004 14.099999999999998 Q 42.2 15.299999999999997 40.300000000000004 15.899999999999999 Q 38.300000000000004 16.599999999999998 35.50000000000001 16.599999999999998 Q 32.50000000000001 16.599999999999998 30.10000000000001 15.999999999999998 Q 27.70000000000001 15.499999999999998 25.20000000000001 14.399999999999999 L 25.20000000000001 9.8 L 25.50000000000001 9.8 Q 27.600000000000012 11.5 30.400000000000013 12.5 Q 33.100000000000016 13.5 35.500000000000014 13.5 Q 38.90000000000001 13.5 40.80000000000001 12.1 Q 42.80000000000001 10.799999999999999 42.80000000000001 8.7 Q 42.80000000000001 6.8999999999999995 41.80000000000001 5.999999999999999 Q 41.000000000000014 5.099999999999999 39.10000000000001 4.6 L 36.10000000000001 3.9999999999999996 L 32.60000000000001 3.3999999999999995 Q 29 2.6 27.2 0.7 Q 25.4 -1 25.4 -4.2 Q 25.4 -7.7 28.4 -9.9 Q 31.299999999999997 -12.100000000000001 35.8 -12.100000000000001 Q 38.8 -12.100000000000001 41.199999999999996 -11.500000000000002 Q 43.599999999999994 -11.000000000000002 45.49999999999999 -10.200000000000001 L 45.49999999999999 -5.800000000000001 L 45.199999999999996 -5.800000000000001 Q 43.6 -7.2 41.1 -8 Q 38.5 -9 35.800000000000004 -9 Q 32.800000000000004 -9 31.000000000000004 -7.7 Q 29.200000000000003 -6.5 29.200000000000003 -4.5 Q 29.200000000000003 -2.8 30.200000000000003 -1.7999999999999998 Q 31.000000000000004 -0.7999999999999998 33.2 -0.2999999999999998 L 36.7 0.30000000000000016 L 40.400000000000006 1.1 Q 43.400000000000006 1.9000000000000001 45.00000000000001 3.6 Q 46.60000000000001 5.2 46.60000000000001 8.2 Z M 68.4 16 L 64.9 16 L 64.9 13.8 L 63.60000000000001 14.700000000000001 L 62.10000000000001 15.600000000000001 L 60.10000000000001 16.3 Q 59.00000000000001 16.6 57.400000000000006 16.6 Q 54.60000000000001 16.6 52.7 14.700000000000001 Q 50.7 12.9 50.7 10 Q 50.7 7.6 51.7 6.2 Q 52.7 4.7 54.7 3.8000000000000003 Q 56.5 3 59.2 2.8000000000000003 Q 61.800000000000004 2.4000000000000004 64.9 2.3000000000000003 L 64.9 1.7000000000000002 Q 64.9 0.5000000000000002 64.5 -0.2999999999999998 Q 64.1 -0.9999999999999998 63.3 -1.4999999999999998 Q 62.5 -1.9 61.5 -1.9999999999999998 Q 60.5 -2.1999999999999997 59.3 -2.1999999999999997 Q 57.9 -2.1999999999999997 56.3 -1.7999999999999998 Q 54.599999999999994 -1.4999999999999998 52.8 -0.7999999999999998 L 52.599999999999994 -0.7999999999999998 L 52.599999999999994 -4.3 L 55.599999999999994 -5 Q 57.49999999999999 -5.3 59.3 -5.3 Q 61.5 -5.3 63.199999999999996 -4.8999999999999995 Q 64.8 -4.6 66 -3.6999999999999993 Q 67.2 -2.7999999999999994 67.8 -1.4999999999999991 Q 68.39999999999999 -0.0999999999999992 68.39999999999999 1.9000000000000008 Z M 64.9 11 L 64.9 5.2 Q 63.300000000000004 5.2 61.10000000000001 5.5 Q 59.00000000000001 5.7 57.70000000000001 6 Q 56.20000000000001 6.4 55.30000000000001 7.4 Q 54.30000000000001 8.200000000000001 54.30000000000001 9.8 Q 54.30000000000001 11.600000000000001 55.40000000000001 12.5 Q 56.40000000000001 13.5 58.70000000000001 13.5 Q 60.50000000000001 13.5 62.10000000000001 12.7 Q 63.60000000000001 12 64.9 11 Z M 91.30000000000001 16 L 87.80000000000001 16 L 87.80000000000001 13.8 L 86.50000000000001 14.700000000000001 L 85.00000000000001 15.600000000000001 L 83.00000000000001 16.3 Q 81.80000000000001 16.6 80.30000000000001 16.6 Q 77.50000000000001 16.6 75.60000000000001 14.700000000000001 Q 73.60000000000001 12.9 73.60000000000001 10 Q 73.60000000000001 7.6 74.60000000000001 6.2 Q 75.60000000000001 4.7 77.60000000000001 3.8000000000000003 Q 79.4 3 82.10000000000001 2.8000000000000003 Q 84.7 2.4000000000000004 87.80000000000001 2.3000000000000003 L 87.80000000000001 1.7000000000000002 Q 87.80000000000001 0.5000000000000002 87.4 -0.2999999999999998 Q 86.9 -0.9999999999999998 86.2 -1.4999999999999998 Q 85.4 -1.9 84.4 -1.9999999999999998 Q 83.4 -2.1999999999999997 82.2 -2.1999999999999997 Q 80.8 -2.1999999999999997 79.2 -1.7999999999999998 Q 77.4 -1.4999999999999998 75.60000000000001 -0.7999999999999998 L 75.4 -0.7999999999999998 L 75.4 -4.3 L 78.4 -5 Q 80.4 -5.3 82.2 -5.3 Q 84.4 -5.3 86 -4.8999999999999995 Q 87.7 -4.6 88.9 -3.6999999999999993 Q 90 -2.7999999999999994 90.60000000000001 -1.4999999999999991 Q 91.30000000000001 -0.0999999999999992 91.30000000000001 1.9000000000000008 Z M 87.80000000000001 11 L 87.80000000000001 5.2 Q 86.20000000000002 5.2 84.00000000000001 5.5 Q 81.80000000000001 5.7 80.60000000000001 6 Q 79.10000000000001 6.4 78.10000000000001 7.4 Q 77.2 8.200000000000001 77.2 9.8 Q 77.2 11.600000000000001 78.2 12.5 Q 79.4 13.5 81.60000000000001 13.5 Q 83.4 13.5 85.00000000000001 12.7 Q 86.50000000000001 12 87.80000000000001 11 Z M 118.4 8.2 Q 118.4 9.799999999999999 117.60000000000001 11.399999999999999 Q 116.9 12.999999999999998 115.60000000000001 14.099999999999998 Q 114.10000000000001 15.299999999999997 112.10000000000001 15.899999999999999 Q 110.10000000000001 16.599999999999998 107.30000000000001 16.599999999999998 Q 104.30000000000001 16.599999999999998 101.9 15.999999999999998 Q 99.5 15.499999999999998 97 14.399999999999999 L 97 9.8 L 97.3 9.8 Q 99.39999999999999 11.5 102.2 12.5 Q 104.9 13.5 107.3 13.5 Q 110.8 13.5 112.7 12.1 Q 114.60000000000001 10.799999999999999 114.60000000000001 8.7 Q 114.60000000000001 6.8999999999999995 113.60000000000001 5.999999999999999 Q 112.80000000000001 5.099999999999999 110.9 4.6 L 107.9 3.9999999999999996 L 104.5 3.3999999999999995 Q 100.8 2.5999999999999996 99 0.6999999999999993 Q 97.2 -1.1000000000000008 97.2 -4.200000000000001 Q 97.2 -7.700000000000001 100.2 -9.900000000000002 Q 103.10000000000001 -12.100000000000001 107.60000000000001 -12.100000000000001 Q 110.60000000000001 -12.100000000000001 113.00000000000001 -11.500000000000002 Q 115.40000000000002 -11.000000000000002 117.30000000000001 -10.200000000000001 L 117.30000000000001 -5.800000000000001 L 117.00000000000001 -5.800000000000001 Q 115.40000000000002 -7.200000000000001 113.00000000000001 -8 Q 110.40000000000002 -9 107.70000000000002 -9 Q 104.70000000000002 -9 102.90000000000002 -7.7 Q 101.10000000000002 -6.5 101.10000000000002 -4.5 Q 101.10000000000002 -2.8 102.10000000000002 -1.7999999999999998 Q 102.90000000000002 -0.7999999999999998 105.10000000000002 -0.2999999999999998 L 108.60000000000002 0.30000000000000016 L 112.30000000000003 1.1 Q 115.30000000000003 1.9000000000000001 116.90000000000002 3.6 Q 118.50000000000001 5.2 118.50000000000001 8.2 Z" aria-label="SaaS" font-size="38.1" transform="translate(-.3 18.9)"><animate attributeType="auto" attributeName="opacity" values="0.5;0.5;0.5;0.5;1;1;0.5;0.5;0.05;0.5" calcMode="spline" keyTimes="0; 0.07142857142857142; 0.14285714285714285; 0.35714285714285715; 0.42857142857142855; 0.5; 0.5714285714285714; 0.9285714285714286; 0.9642857142857143; 1" keySplines="0 0 1 1;0 0 1 1;0 0 1 1;0 0 1 1;0 0 1 1;0 0 1 1;0 0 1 1;0 0 1 1;0 0 1 1" dur="14s" begin="0s" repeatCount="indefinite" additive="replace" accumulate="none" fill="freeze" id="animate9006"></animate><animateTransform attributeName="transform" attributeType="auto" type="translate" values="0 0;0 0;0 42;0 42;0 82;0 82;0 125;0 125;0 159;0 159;0 193;0 193;0 227;0 227;0 0" calcMode="spline" keyTimes="0; 0.07142857142857142; 0.14285714285714285; 0.21428571428571427; 0.2857142857142857; 0.35714285714285715; 0.42857142857142855; 0.5; 0.5714285714285714; 0.6428571428571429; 0.7142857142857143; 0.7857142857142857; 0.8571428571428571; 0.9285714285714286; 1" keySplines="0 0 1 1;0 0 1 1;0 0 1 1;0 0 1 1;0 0 1 1;0 0 1 1;0 0 1 1;0 0 1 1;0 0 1 1;0 0 1 1;0 0 1 1;0 0 1 1;0 0 1 1;0 0 1 1" dur="14s" begin="0s" repeatCount="indefinite" additive="sum" accumulate="none" fill="freeze" id="animateTransform2981"></animateTransform></path>
    <path id="aspNetText" d="M 27.4 259.6 L 24.7 259.6 L 22.7 254.20000000000002 L 14.299999999999999 254.20000000000002 L 12.399999999999999 259.6 L 9.8 259.6 L 16.8 240.10000000000002 L 20.3 240.10000000000002 Z M 22 252 L 18.5 242.4 L 15.1 252 Z M 44.4 254 Q 44.4 255.2 43.9 256.3 Q 43.4 257.40000000000003 42.4 258.3 Q 41.4 259 40 259.5 T 36.6 260 Q 34.5 260 32.800000000000004 259.6 Q 31.100000000000005 259.20000000000005 29.400000000000006 258.40000000000003 L 29.400000000000006 255.20000000000005 L 29.600000000000005 255.20000000000005 Q 31.100000000000005 256.40000000000003 33.00000000000001 257.1 Q 35.00000000000001 257.8 36.60000000000001 257.8 Q 39.00000000000001 257.8 40.400000000000006 256.8 Q 41.7 255.9 41.7 254.4 Q 41.7 253.1 41.1 252.5 Q 40.5 251.9 39.1 251.5 L 37.1 251.1 L 34.6 250.7 Q 32 250.2 30.8 248.79999999999998 Q 29.5 247.49999999999997 29.5 245.39999999999998 Q 29.5 242.89999999999998 31.5 241.39999999999998 Q 33.7 239.79999999999998 36.8 239.79999999999998 Q 38.8 239.79999999999998 40.599999999999994 240.2 Q 42.3 240.6 43.599999999999994 241.2 L 43.599999999999994 244.2 L 43.49999999999999 244.2 Q 42.29999999999999 243.2 40.49999999999999 242.7 Q 38.699999999999996 242 36.79999999999999 242 Q 34.79999999999999 242 33.49999999999999 242.9 Q 32.199999999999996 243.8 32.199999999999996 245.1 Q 32.199999999999996 246.29999999999998 32.8 247.1 Q 33.5 247.7 35.099999999999994 248.1 L 37.39999999999999 248.5 L 40.099999999999994 249.1 Q 42.199999999999996 249.6 43.3 250.79999999999998 T 44.4 254.1 Z M 61.4 246 Q 61.4 247.3 60.9 248.4 Q 60.4 249.5 59.6 250.4 Q 58.6 251.4 57.2 251.9 Q 55.900000000000006 252.4 53.800000000000004 252.4 L 51.2 252.4 L 51.2 259.6 L 48.6 259.6 L 48.6 240.10000000000002 L 53.9 240.10000000000002 Q 55.6 240.10000000000002 56.9 240.40000000000003 Q 58.1 240.70000000000005 59 241.40000000000003 Q 60.1 242.10000000000002 60.7 243.20000000000005 Q 61.300000000000004 244.30000000000004 61.300000000000004 246.00000000000006 Z M 58.6 246.1 Q 58.6 245.1 58.300000000000004 244.29999999999998 Q 57.900000000000006 243.6 57.300000000000004 243.1 Q 56.6 242.7 55.800000000000004 242.6 Q 55.00000000000001 242.4 53.800000000000004 242.4 L 51.2 242.4 L 51.2 250.20000000000002 L 53.400000000000006 250.20000000000002 Q 54.900000000000006 250.20000000000002 55.900000000000006 249.9 T 57.50000000000001 248.9 Q 58.10000000000001 248.4 58.400000000000006 247.70000000000002 Q 58.60000000000001 247.00000000000003 58.60000000000001 246.10000000000002 Z M 64.6 259.6 L 61.599999999999994 259.6 L 61.599999999999994 256 L 64.6 256 Z M 85.5 259.6 L 82.2 259.6 L 73 242.2 L 73 259.59999999999997 L 70.6 259.59999999999997 L 70.6 240.09999999999997 L 74.6 240.09999999999997 L 83 256.09999999999997 L 83 240.09999999999997 L 85.5 240.09999999999997 Z M 103.5 259.6 L 90.6 259.6 L 90.6 240.10000000000002 L 103.5 240.10000000000002 L 103.5 242.40000000000003 L 93.2 242.40000000000003 L 93.2 247.80000000000004 L 103.5 247.80000000000004 L 103.5 250.10000000000005 L 93.2 250.10000000000005 L 93.2 257.30000000000007 L 103.5 257.30000000000007 Z M 121.5 242.40000000000003 L 114.5 242.40000000000003 L 114.5 259.6 L 112 259.6 L 112 242.40000000000003 L 105 242.40000000000003 L 105 240.10000000000002 L 121.6 240.10000000000002 Z" aria-label="ASP.NET" font-size="26.8"><animate attributeType="auto" attributeName="opacity" values="0.5;0.5;0.05;0.5;0.5;1;1;0.5;0.5" calcMode="spline" keyTimes="0; 0.07142857142857142; 0.10714285714285714; 0.14285714285714285; 0.5; 0.5714285714285714; 0.6428571428571429; 0.7142857142857143; 1" keySplines="0 0 1 1;0 0 1 1;0 0 1 1;0 0 1 1;0 0 1 1;0 0 1 1;0 0 1 1;0 0 1 1" dur="14s" begin="0s" repeatCount="indefinite" additive="replace" accumulate="none" fill="freeze" id="animate346"></animate><animateTransform attributeName="transform" attributeType="auto" type="translate" values="0 0;0 0;0 -225;0 -225;0 -185;0 -185;0 -145;0 -145;0 -105;0 -105;0 -69;0 -69;0 -32;0 -32;0 0" calcMode="spline" keyTimes="0; 0.07142857142857142; 0.14285714285714285; 0.21428571428571427; 0.2857142857142857; 0.35714285714285715; 0.42857142857142855; 0.5; 0.5714285714285714; 0.6428571428571429; 0.7142857142857143; 0.7857142857142857; 0.8571428571428571; 0.9285714285714286; 1" keySplines="0 0 1 1;0 0 1 1;0 0 1 1;0 0 1 1;0 0 1 1;0 0 1 1;0 0 1 1;0 0 1 1;0 0 1 1;0 0 1 1;0 0 1 1;0 0 1 1;0 0 1 1;0 0 1 1" dur="14s" begin="0s" repeatCount="indefinite" additive="sum" accumulate="none" fill="freeze" id="animateTransform5492"></animateTransform></path>
  </g>
</svg>